<svg xmlns="http://www.w3.org/2000/svg" width="36" height="41" fill="none" viewBox="0 0 36 41"><path fill="#fff" d="M26.481 19.789c3.48 0 6.302-.562 6.302-1.254 0-.693-2.822-1.254-6.302-1.254s-6.301.561-6.301 1.254c0 .692 2.821 1.254 6.301 1.254M7.527 40.203c3.48 0 6.301-.561 6.301-1.254 0-.692-2.821-1.253-6.301-1.253s-6.302.56-6.302 1.254c0 .692 2.821 1.253 6.302 1.253"/><path fill="#FC0015" d="m27.534 17.32 4.315-7.4c2.415-4.139-.573-9.34-5.364-9.34s-7.78 5.198-5.364 9.34l4.315 7.4a1.215 1.215 0 0 0 2.098 0"/><path fill="#fff" d="M26.485 9.249a2.287 2.287 0 1 0 0-4.575 2.287 2.287 0 0 0 0 4.575"/><path fill="#FC0015" fill-rule="evenodd" d="M29.342 16.695a.24.24 0 0 1 .265-.213c1.323.146 2.461.39 3.276.703.407.157.746.335.988.538.24.201.415.453.415.75 0 .395-.302.707-.686.945-.397.245-.956.457-1.625.631-1.342.35-3.183.565-5.206.565s-3.863-.214-5.205-.565c-.67-.174-1.229-.386-1.626-.631-.384-.238-.686-.55-.686-.944 0-.28.155-.52.372-.714.219-.194.524-.366.889-.518.732-.304 1.757-.546 2.956-.705a.24.24 0 0 1 .063.476c-1.178.155-2.157.39-2.835.672-.34.142-.591.289-.753.433-.163.146-.212.265-.212.356 0 .13.105.317.458.535.34.21.847.407 1.495.576 1.292.337 3.09.549 5.084.549 1.995 0 3.793-.212 5.085-.549.648-.169 1.155-.366 1.494-.576.353-.218.458-.405.458-.535 0-.097-.055-.226-.242-.383-.186-.155-.47-.311-.853-.458-.762-.293-1.856-.53-3.156-.674a.24.24 0 0 1-.213-.264" clip-rule="evenodd" opacity=".65"/><path fill="#FC0015" d="m8.282 37.705 4.315-7.399c2.415-4.139-.573-9.34-5.364-9.34s-7.78 5.198-5.365 9.34l4.315 7.399a1.215 1.215 0 0 0 2.099 0"/><path fill="#fff" d="M7.233 29.635a2.287 2.287 0 1 0 0-4.574 2.287 2.287 0 0 0 0 4.574"/><path fill="#FC0015" fill-rule="evenodd" d="M10.09 37.08a.24.24 0 0 1 .265-.211c1.322.145 2.461.389 3.276.702.407.157.746.336.989.538.24.201.414.453.414.751 0 .395-.302.707-.686.944-.397.245-.956.457-1.625.632-1.342.35-3.183.564-5.206.564s-3.863-.214-5.205-.564c-.67-.175-1.229-.387-1.626-.632-.384-.237-.686-.55-.686-.944 0-.28.155-.52.372-.713.219-.195.524-.367.889-.519.732-.303 1.757-.546 2.956-.704a.24.24 0 0 1 .063.475c-1.178.156-2.157.391-2.835.673-.34.14-.591.288-.753.433s-.212.264-.212.355c0 .13.105.318.458.535.34.21.847.407 1.495.576 1.292.338 3.09.55 5.084.55 1.995 0 3.793-.212 5.085-.55.648-.169 1.155-.366 1.494-.576.353-.217.459-.405.459-.535 0-.097-.056-.226-.243-.383q-.279-.234-.853-.458c-.762-.293-1.856-.53-3.156-.673a.24.24 0 0 1-.213-.265M18.574 20.058a.24.24 0 0 1 .125.315c-.224.522-.376 1.06-.41 1.591a.24.24 0 1 1-.479-.03c.039-.6.209-1.193.449-1.75a.24.24 0 0 1 .315-.126m.706 4.745a.24.24 0 0 1 .338-.037c.674.542 1.65 1.04 3.024 1.447a.24.24 0 0 1-.137.46c-1.412-.42-2.45-.94-3.188-1.533a.24.24 0 0 1-.037-.337m6.448 2.304a.24.24 0 0 1 .27-.205q.804.11 1.711.19.746.068 1.42.156a.24.24 0 0 1-.064.476q-.66-.088-1.398-.154-.918-.081-1.733-.193a.24.24 0 0 1-.206-.27m5.931.86a.24.24 0 0 1 .295-.168c1.13.31 2.011.695 2.66 1.14a.24.24 0 1 1-.27.395c-.592-.404-1.42-.77-2.517-1.072a.24.24 0 0 1-.168-.296m4.13 3.283a.24.24 0 0 1 .209.268c-.107.853-.655 1.715-1.507 2.527a.24.24 0 0 1-.331-.347c.814-.776 1.275-1.543 1.362-2.24a.24.24 0 0 1 .268-.208m-3.54 4.164a.24.24 0 0 1-.087.328c-.768.446-1.633.867-2.577 1.253a.24.24 0 1 1-.182-.444c.927-.379 1.771-.79 2.518-1.224a.24.24 0 0 1 .328.087m-5.203 2.22a.24.24 0 0 1-.164.297c-.883.257-1.811.482-2.774.669a.24.24 0 0 1-.092-.471q1.427-.278 2.732-.659a.24.24 0 0 1 .298.164m-5.55 1.124a.24.24 0 0 1-.213.264q-.705.074-1.423.119a.24.24 0 0 1-.03-.48q.709-.044 1.403-.117a.24.24 0 0 1 .263.214M16.445 38.935a.24.24 0 0 1 .248-.232c.533.02 1.063.022 1.588.016a.24.24 0 1 1 .006.48q-.797.01-1.61-.016a.24.24 0 0 1-.232-.248" clip-rule="evenodd" opacity=".65"/></svg>